<?xml version="1.0" encoding="UTF-8"?> <svg xmlns="http://www.w3.org/2000/svg" height="100px" width="100px" fill="#a30000" data-name="Layer 2" viewBox="0 0 32 32" x="0px" y="0px"> <title>featured, top selling, best, ecommerce-</title> <path d="M19.38,12.05a.19175.19175,0,0,1-.04.16L18.11,13.4a2.15762,2.15762,0,0,0-.62,1.91l.3,1.67a.148.148,0,0,1-.07.15.15068.15068,0,0,1-.18.02l-1.52-.78a2.16411,2.16411,0,0,0-2.01,0l-1.52.8a.15213.15213,0,0,1-.18-.02.14794.14794,0,0,1-.07-.15l.29-1.67a2.13451,2.13451,0,0,0-.64-1.91l-1.22-1.18a.14616.14616,0,0,1,.09-.26l1.69-.25a2.18118,2.18118,0,0,0,1.63-1.18v-.01l.76-1.52a.155.155,0,0,1,.15-.09.14881.14881,0,0,1,.15.09l.08.16.51,1,.18.36a2.16283,2.16283,0,0,0,1.63,1.17l1.7.24005A.15042.15042,0,0,1,19.38,12.05Z"></path> <path d="M25.94,11.93a8.81547,8.81547,0,0,0-.15-1.03,11.00506,11.00506,0,0,0-21.58,0,8.81547,8.81547,0,0,0-.15,1.03A9.5983,9.5983,0,0,0,4,13c0,.2.01.4.01.6a9.9252,9.9252,0,0,0,.12,1.11,11.00435,11.00435,0,0,0,21.74,0,9.9252,9.9252,0,0,0,.12-1.11c0-.2.01-.4.01-.6A9.5983,9.5983,0,0,0,25.94,11.93ZM21,13.32a1.99446,1.99446,0,0,1-.27.32L19.51,14.83a.15522.15522,0,0,0-.05.14l.3,1.67a2.17011,2.17011,0,0,1-3.14,2.29l-1.52-.79a.22068.22068,0,0,0-.16,0l-1.52.8a2.16238,2.16238,0,0,1-2.29-.17,2.12649,2.12649,0,0,1-.86-2.1L10.56,15a.15357.15357,0,0,0-.05-.13L9.28,13.69A2.19669,2.19669,0,0,1,9,13.35a2.13091,2.13091,0,0,1-.28-1.87A2.22727,2.22727,0,0,1,9,10.9a2.14983,2.14983,0,0,1,.86-.72,2.05242,2.05242,0,0,1,.61-.18l1.69-.25a.15989.15989,0,0,0,.13-.09L12.53,9.18l.49-1,.02-.05a2.169,2.169,0,0,1,1.95-1.2,2.14493,2.14493,0,0,1,1.94,1.19l.03.06.5,1,.23.46a.19637.19637,0,0,0,.13.09l1.7.23a2.26125,2.26125,0,0,1,.68.22,2.13663,2.13663,0,0,1,.8.69,2.25822,2.25822,0,0,1,.28.56A2.14622,2.14622,0,0,1,21,13.32Z"></path> <path d="M23,23.24v5.7a.99875.99875,0,0,1-.47.85,1.03375,1.03375,0,0,1-.98.05L18.68,28.4l-3.27,1.46a1.06007,1.06007,0,0,1-.81994,0L11.32,28.4,8.45,29.84a1.03431,1.03431,0,0,1-.98-.05A.99875.99875,0,0,1,7,28.94v-5.7a12.646,12.646,0,0,0,2,1.29,12.97966,12.97966,0,0,0,12,0A12.646,12.646,0,0,0,23,23.24Z"></path> </svg> 