<?xml version="1.0" encoding="UTF-8"?> <svg xmlns="http://www.w3.org/2000/svg" width="216" height="64" viewBox="0 0 216 64" fill="none"> <rect x="1" y="1" width="214" height="62" rx="7" fill="#850000" stroke="#FF8C5C" stroke-width="2"></rect> <path d="M24.0623 35.1949H29.5313C29.7095 35.1949 29.8804 35.1241 30.0064 34.9981C30.1324 34.8721 30.2032 34.7012 30.2032 34.523V32.3058H23.3904V34.523C23.3904 34.7012 23.4612 34.8721 23.5872 34.9981C23.7132 35.1241 23.8841 35.1949 24.0623 35.1949Z" fill="#FFDCCB"></path> <path d="M32.1243 45.1608C31.8975 45.0257 31.6341 44.9651 31.3711 44.9875H30.5527V46.4387H31.3711C31.4943 46.439 31.6174 46.4298 31.7393 46.4112C31.8472 46.3959 31.9515 46.361 32.047 46.3084C32.1365 46.2583 32.2106 46.1846 32.2613 46.0954C32.32 45.9852 32.3481 45.8613 32.3426 45.7366C32.3469 45.6144 32.3275 45.4926 32.2855 45.3778C32.2527 45.2921 32.1969 45.217 32.1243 45.1608V45.1608Z" fill="#F5F5F6"></path> <path d="M25.7959 47.5352H26.9246L26.3764 45.4067L25.7959 47.5352Z" fill="#F5F5F6"></path> <path d="M46.2812 40.6767V23.0104L46.0844 22.8136L36.4833 13.2125L36.2864 13.0156H19.4062C18.6935 13.0156 18.0099 13.2988 17.5059 13.8028C17.0019 14.3068 16.7188 14.9904 16.7188 15.7031V38.3735C16.5151 38.4904 16.3457 38.6589 16.2278 38.862C16.1098 39.0651 16.0474 39.2956 16.0469 39.5305V49.2969C16.0479 50.1875 16.4022 51.0414 17.032 51.6711C17.6618 52.3009 18.5156 52.6552 19.4062 52.6562H43.5938C44.4844 52.6552 45.3382 52.3009 45.968 51.6711C46.5978 51.0414 46.9521 50.1875 46.9531 49.2969V41.8344C46.9527 41.5994 46.8903 41.3687 46.7724 41.1655C46.6544 40.9622 46.485 40.7937 46.2812 40.6767V40.6767ZM27.5292 49.8895L27.2067 48.6317H25.5055L25.1588 49.8895H23.8688L25.6023 43.891H27.118L28.8273 49.8895H27.5292ZM33.054 47.0757C32.596 47.4094 32.0354 47.5721 31.4698 47.5352H30.5527V49.8868H29.2707V43.891H31.4798C31.7651 43.8887 32.0497 43.9211 32.3271 43.9877C32.5723 44.0453 32.8032 44.1523 33.0057 44.3022C33.2016 44.4513 33.3576 44.6466 33.4599 44.8706C33.5764 45.1386 33.6326 45.429 33.6245 45.7212C33.6405 45.9756 33.5973 46.2304 33.4983 46.4654C33.3993 46.7004 33.2473 46.9093 33.054 47.0757V47.0757ZM37.6718 49.8895L36.2703 47.1966L35.5608 48.0915V49.8895H34.2775V43.891H35.5595V46.2936L37.3816 43.891H38.8732L37.1478 46.1753L39.115 49.8922L37.6718 49.8895ZM44.9375 40.4906H30.214L28.6015 38.6456C28.4754 38.5015 28.32 38.386 28.1456 38.3069C27.9712 38.2277 27.7819 38.1868 27.5904 38.1868H18.0625V15.7031C18.0625 15.3467 18.2041 15.005 18.4561 14.753C18.7081 14.5009 19.0499 14.3594 19.4062 14.3594H24.0066C23.8397 14.3719 23.6836 14.4468 23.5694 14.5692C23.4552 14.6916 23.3914 14.8525 23.3905 15.0198V15.3672C23.3905 15.5454 23.4613 15.7163 23.5873 15.8423C23.7133 15.9683 23.8842 16.0391 24.0623 16.0391H25.9288V17.7329H24.0623C23.8842 17.7329 23.7133 17.8036 23.5873 17.9296C23.4613 18.0556 23.3905 18.2265 23.3905 18.4047V18.7548C23.3905 18.933 23.4613 19.1039 23.5873 19.2299C23.7133 19.3559 23.8842 19.4267 24.0623 19.4267H25.9288V21.1205H24.0623C23.8842 21.1205 23.7133 21.1912 23.5873 21.3172C23.4613 21.4432 23.3905 21.6141 23.3905 21.7923V22.1424C23.3905 22.3206 23.4613 22.4915 23.5873 22.6175C23.7133 22.7435 23.8842 22.8142 24.0623 22.8142H25.9288V24.508H24.0623C23.8842 24.508 23.7133 24.5788 23.5873 24.7048C23.4613 24.8308 23.3905 25.0017 23.3905 25.1799V25.53C23.3905 25.7082 23.4613 25.8791 23.5873 26.0051C23.7133 26.1311 23.8842 26.2018 24.0623 26.2018H25.9288V27.8956H24.0623C23.8842 27.8956 23.7133 27.9664 23.5873 28.0924C23.4613 28.2184 23.3905 28.3893 23.3905 28.5675V28.9176C23.3905 29.0958 23.4613 29.2666 23.5873 29.3926C23.7133 29.5187 23.8842 29.5894 24.0623 29.5894H25.9288V30.6114C25.9288 30.7896 25.9996 30.9604 26.1256 31.0864C26.2516 31.2124 26.4225 31.2832 26.6007 31.2832H29.5314C29.7096 31.2832 29.8805 31.2124 30.0065 31.0864C30.1325 30.9604 30.2033 30.7896 30.2033 30.6114V30.2613C30.2033 30.0831 30.1325 29.9122 30.0065 29.7862C29.8805 29.6602 29.7096 29.5894 29.5314 29.5894H27.6649V27.8983H29.5314C29.7096 27.8983 29.8805 27.8275 30.0065 27.7015C30.1325 27.5755 30.2033 27.4046 30.2033 27.2265V26.8764C30.2033 26.6982 30.1325 26.5273 30.0065 26.4013C29.8805 26.2753 29.7096 26.2045 29.5314 26.2045H27.6649V24.5107H29.5314C29.7096 24.5107 29.8805 24.4399 30.0065 24.3139C30.1325 24.1879 30.2033 24.0171 30.2033 23.8389V23.4888C30.2033 23.3106 30.1325 23.1397 30.0065 23.0137C29.8805 22.8877 29.7096 22.8169 29.5314 22.8169H27.6649V21.1231H29.5314C29.7096 21.1231 29.8805 21.0524 30.0065 20.9264C30.1325 20.8004 30.2033 20.6295 30.2033 20.4513V20.1012C30.2033 19.923 30.1325 19.7521 30.0065 19.6261C29.8805 19.5001 29.7096 19.4293 29.5314 19.4293H27.6649V17.7355H29.5314C29.7096 17.7355 29.8805 17.6648 30.0065 17.5388C30.1325 17.4128 30.2033 17.2419 30.2033 17.0637V16.7109C30.2033 16.5327 30.1325 16.3619 30.0065 16.2359C29.8805 16.1098 29.7096 16.0391 29.5314 16.0391H27.6649V14.3594H35.3364V21.273C35.3364 21.9857 35.6196 22.6693 36.1236 23.1733C36.6276 23.6773 37.3111 23.9605 38.0239 23.9605H44.9375V40.4906Z" fill="#FFDCCB"></path> <path d="M68.394 31C68.118 31 67.878 30.898 67.674 30.694C67.47 30.49 67.368 30.25 67.368 29.974V18.886C67.368 18.61 67.47 18.37 67.674 18.166C67.878 17.962 68.118 17.86 68.394 17.86H76.494C76.77 17.86 77.01 17.962 77.214 18.166C77.418 18.37 77.52 18.61 77.52 18.886V29.974C77.52 30.25 77.418 30.49 77.214 30.694C77.01 30.898 76.77 31 76.494 31H75.468C75.192 31 74.952 30.898 74.748 30.694C74.556 30.49 74.46 30.25 74.46 29.974V20.47C74.46 20.374 74.406 20.326 74.298 20.326H70.59C70.482 20.326 70.428 20.374 70.428 20.47V29.974C70.428 30.25 70.326 30.49 70.122 30.694C69.93 30.898 69.696 31 69.42 31H68.394ZM83.6188 20.272V24.178C83.6188 24.274 83.6728 24.334 83.7808 24.358C84.1888 24.406 84.5128 24.43 84.7528 24.43C85.6168 24.43 86.2828 24.232 86.7508 23.836C87.2308 23.428 87.4708 22.864 87.4708 22.144C87.4708 20.716 86.5648 20.002 84.7528 20.002C84.4528 20.002 84.1228 20.032 83.7628 20.092C83.6668 20.116 83.6188 20.176 83.6188 20.272ZM81.6388 31C81.3628 31 81.1228 30.898 80.9188 30.694C80.7148 30.49 80.6128 30.25 80.6128 29.974V18.976C80.6128 18.688 80.7088 18.43 80.9008 18.202C81.0928 17.974 81.3328 17.848 81.6208 17.824C82.6408 17.728 83.6248 17.68 84.5728 17.68C88.4128 17.68 90.3328 19.108 90.3328 21.964C90.3328 23.512 89.8828 24.688 88.9828 25.492C88.0948 26.284 86.7868 26.68 85.0588 26.68C84.6028 26.68 84.1768 26.662 83.7808 26.626C83.6728 26.626 83.6188 26.674 83.6188 26.77V29.974C83.6188 30.25 83.5168 30.49 83.3128 30.694C83.1088 30.898 82.8688 31 82.5928 31H81.6388ZM97.5076 20.002C96.6556 20.002 96.0316 20.158 95.6356 20.47C95.2396 20.782 95.0416 21.25 95.0416 21.874C95.0416 22.51 95.2576 23.008 95.6896 23.368C96.1336 23.716 96.7816 23.89 97.6336 23.89H98.4976C98.5936 23.89 98.6416 23.836 98.6416 23.728V20.272C98.6416 20.164 98.5876 20.098 98.4796 20.074C98.2036 20.026 97.8796 20.002 97.5076 20.002ZM92.6476 31C92.3956 31 92.1976 30.898 92.0536 30.694C91.9096 30.49 91.8856 30.274 91.9816 30.046L93.0076 27.31C93.2236 26.734 93.4456 26.284 93.6736 25.96C93.9016 25.624 94.1776 25.366 94.5016 25.186C94.5256 25.186 94.5376 25.174 94.5376 25.15C94.5376 25.138 94.5316 25.132 94.5196 25.132C93.7516 24.856 93.1336 24.4 92.6656 23.764C92.2096 23.116 91.9816 22.39 91.9816 21.586C91.9816 20.338 92.4196 19.378 93.2956 18.706C94.1836 18.022 95.5276 17.68 97.3276 17.68C98.4556 17.68 99.5536 17.734 100.622 17.842C100.91 17.866 101.15 17.986 101.342 18.202C101.546 18.418 101.648 18.676 101.648 18.976V29.974C101.648 30.25 101.546 30.49 101.342 30.694C101.138 30.898 100.898 31 100.622 31H99.6676C99.3796 31 99.1336 30.898 98.9296 30.694C98.7376 30.49 98.6416 30.25 98.6416 29.974V26.302C98.6416 26.194 98.5936 26.14 98.4976 26.14H97.7416C97.2256 26.14 96.8476 26.23 96.6076 26.41C96.3796 26.59 96.1816 26.932 96.0136 27.436L95.1136 30.028C95.0056 30.316 94.8256 30.55 94.5736 30.73C94.3216 30.91 94.0456 31 93.7456 31H92.6476ZM105.65 31C105.374 31 105.134 30.898 104.93 30.694C104.726 30.49 104.624 30.25 104.624 29.974V18.886C104.624 18.61 104.726 18.37 104.93 18.166C105.134 17.962 105.374 17.86 105.65 17.86H106.676C106.988 17.86 107.27 17.944 107.522 18.112C107.774 18.28 107.96 18.508 108.08 18.796L110.87 25.582C110.87 25.594 110.876 25.6 110.888 25.6C110.9 25.6 110.906 25.594 110.906 25.582L113.696 18.796C113.816 18.508 114.002 18.28 114.254 18.112C114.506 17.944 114.788 17.86 115.1 17.86H116.198C116.474 17.86 116.714 17.962 116.918 18.166C117.122 18.37 117.224 18.61 117.224 18.886V29.974C117.224 30.25 117.122 30.49 116.918 30.694C116.714 30.898 116.474 31 116.198 31H115.334C115.058 31 114.818 30.898 114.614 30.694C114.422 30.49 114.326 30.25 114.326 29.974V22.972C114.326 22.96 114.32 22.954 114.308 22.954C114.284 22.954 114.272 22.96 114.272 22.972L112.544 27.058C112.424 27.346 112.232 27.574 111.968 27.742C111.716 27.91 111.434 27.994 111.122 27.994H110.654C110.342 27.994 110.054 27.91 109.79 27.742C109.538 27.574 109.352 27.346 109.232 27.058L107.504 22.972C107.504 22.96 107.492 22.954 107.468 22.954C107.456 22.954 107.45 22.96 107.45 22.972V29.974C107.45 30.25 107.348 30.49 107.144 30.694C106.952 30.898 106.718 31 106.442 31H105.65ZM128.682 24.43C128.682 21.61 127.674 20.2 125.658 20.2C123.642 20.2 122.634 21.61 122.634 24.43C122.634 27.25 123.642 28.66 125.658 28.66C127.674 28.66 128.682 27.25 128.682 24.43ZM130.158 29.398C129.054 30.586 127.554 31.18 125.658 31.18C123.762 31.18 122.262 30.586 121.158 29.398C120.054 28.198 119.502 26.542 119.502 24.43C119.502 22.318 120.054 20.668 121.158 19.48C122.262 18.28 123.762 17.68 125.658 17.68C127.554 17.68 129.054 18.28 130.158 19.48C131.262 20.668 131.814 22.318 131.814 24.43C131.814 26.542 131.262 28.198 130.158 29.398ZM135.11 31C134.834 31 134.594 30.898 134.39 30.694C134.198 30.49 134.102 30.25 134.102 29.974V18.886C134.102 18.61 134.198 18.37 134.39 18.166C134.594 17.962 134.834 17.86 135.11 17.86H141.482C141.758 17.86 141.992 17.962 142.184 18.166C142.388 18.37 142.49 18.61 142.49 18.886V19.3C142.49 19.576 142.388 19.816 142.184 20.02C141.992 20.224 141.758 20.326 141.482 20.326H137.306C137.21 20.326 137.162 20.374 137.162 20.47V22.846C137.162 22.954 137.21 23.008 137.306 23.008H141.122C141.398 23.008 141.632 23.11 141.824 23.314C142.028 23.518 142.13 23.758 142.13 24.034V24.304C142.13 24.58 142.028 24.82 141.824 25.024C141.632 25.228 141.398 25.33 141.122 25.33H137.306C137.21 25.33 137.162 25.378 137.162 25.474V28.39C137.162 28.486 137.21 28.534 137.306 28.534H141.482C141.758 28.534 141.992 28.636 142.184 28.84C142.388 29.044 142.49 29.284 142.49 29.56V29.974C142.49 30.25 142.388 30.49 142.184 30.694C141.992 30.898 141.758 31 141.482 31H135.11ZM72.894 50.18C70.926 50.18 69.378 49.598 68.25 48.434C67.122 47.27 66.558 45.602 66.558 43.43C66.558 41.294 67.104 39.638 68.196 38.462C69.288 37.274 70.812 36.68 72.768 36.68C73.704 36.68 74.52 36.746 75.216 36.878C75.504 36.926 75.738 37.07 75.918 37.31C76.098 37.55 76.188 37.82 76.188 38.12V38.696C76.188 38.948 76.086 39.146 75.882 39.29C75.678 39.434 75.456 39.476 75.216 39.416C74.544 39.236 73.848 39.146 73.128 39.146C72.048 39.146 71.202 39.512 70.59 40.244C69.99 40.976 69.69 42.038 69.69 43.43C69.69 44.798 70.014 45.86 70.662 46.616C71.31 47.372 72.174 47.75 73.254 47.75C73.974 47.75 74.676 47.66 75.36 47.48C75.6 47.42 75.822 47.462 76.026 47.606C76.242 47.75 76.35 47.948 76.35 48.2V48.74C76.35 49.04 76.254 49.31 76.062 49.55C75.882 49.79 75.648 49.934 75.36 49.982C74.652 50.114 73.83 50.18 72.894 50.18ZM80.3907 50C80.1147 50 79.8747 49.898 79.6707 49.694C79.4667 49.49 79.3647 49.25 79.3647 48.974V37.886C79.3647 37.61 79.4667 37.37 79.6707 37.166C79.8747 36.962 80.1147 36.86 80.3907 36.86H81.4167C81.6927 36.86 81.9267 36.962 82.1187 37.166C82.3227 37.37 82.4247 37.61 82.4247 37.886V42.476C82.4247 42.488 82.4307 42.494 82.4427 42.494C82.4667 42.494 82.4787 42.488 82.4787 42.476L85.5387 37.724C85.8987 37.148 86.4207 36.86 87.1047 36.86H88.6167C88.8327 36.86 88.9887 36.956 89.0847 37.148C89.1807 37.34 89.1687 37.526 89.0487 37.706L85.3947 43.034C85.3347 43.118 85.3347 43.202 85.3947 43.286L89.2467 49.154C89.3667 49.334 89.3727 49.52 89.2647 49.712C89.1687 49.904 89.0127 50 88.7967 50H87.2847C86.6007 50 86.0847 49.712 85.7367 49.136L82.4787 43.844C82.4787 43.832 82.4667 43.826 82.4427 43.826C82.4307 43.826 82.4247 43.832 82.4247 43.844V48.974C82.4247 49.25 82.3227 49.49 82.1187 49.694C81.9267 49.898 81.6927 50 81.4167 50H80.3907ZM94.9032 44.69C94.8912 44.726 94.8972 44.762 94.9212 44.798C94.9572 44.822 94.9932 44.834 95.0292 44.834H97.4412C97.4772 44.834 97.5072 44.822 97.5312 44.798C97.5672 44.762 97.5792 44.726 97.5672 44.69L96.2532 39.524C96.2532 39.512 96.2472 39.506 96.2352 39.506C96.2232 39.506 96.2172 39.512 96.2172 39.524L94.9032 44.69ZM91.4112 50C91.1592 50 90.9552 49.898 90.7992 49.694C90.6552 49.49 90.6252 49.268 90.7092 49.028L94.3452 37.832C94.4412 37.544 94.6092 37.31 94.8492 37.13C95.1012 36.95 95.3772 36.86 95.6772 36.86H96.8652C97.1772 36.86 97.4592 36.95 97.7112 37.13C97.9632 37.31 98.1312 37.544 98.2152 37.832L101.833 49.028C101.917 49.268 101.881 49.49 101.725 49.694C101.581 49.898 101.383 50 101.131 50H99.9252C99.6252 50 99.3552 49.91 99.1152 49.73C98.8752 49.538 98.7192 49.298 98.6472 49.01L98.2152 47.3C98.2032 47.204 98.1432 47.156 98.0352 47.156H94.4352C94.3392 47.156 94.2792 47.204 94.2552 47.3L93.8232 49.01C93.7512 49.298 93.5952 49.538 93.3552 49.73C93.1152 49.91 92.8452 50 92.5452 50H91.4112ZM108.368 45.986C106.712 45.986 105.512 45.632 104.768 44.924C104.036 44.216 103.67 43.076 103.67 41.504V37.886C103.67 37.61 103.766 37.37 103.958 37.166C104.162 36.962 104.402 36.86 104.678 36.86H105.632C105.908 36.86 106.148 36.962 106.352 37.166C106.556 37.37 106.658 37.61 106.658 37.886V41.126C106.658 42.074 106.814 42.704 107.126 43.016C107.438 43.316 108.056 43.466 108.98 43.466C109.508 43.466 109.988 43.358 110.42 43.142C110.492 43.106 110.528 43.028 110.528 42.908V37.886C110.528 37.61 110.63 37.37 110.834 37.166C111.038 36.962 111.278 36.86 111.554 36.86H112.58C112.856 36.86 113.09 36.962 113.282 37.166C113.486 37.37 113.588 37.61 113.588 37.886V48.974C113.588 49.25 113.486 49.49 113.282 49.694C113.09 49.898 112.856 50 112.58 50H111.554C111.278 50 111.038 49.898 110.834 49.694C110.63 49.49 110.528 49.25 110.528 48.974V45.698C110.528 45.59 110.486 45.56 110.402 45.608C109.85 45.86 109.172 45.986 108.368 45.986ZM117.717 50C117.441 50 117.201 49.898 116.997 49.694C116.793 49.49 116.691 49.25 116.691 48.974V37.886C116.691 37.61 116.793 37.37 116.997 37.166C117.201 36.962 117.441 36.86 117.717 36.86H118.599C118.875 36.86 119.115 36.962 119.319 37.166C119.523 37.37 119.625 37.61 119.625 37.886V44.906C119.625 44.918 119.631 44.924 119.643 44.924C119.655 44.924 119.661 44.918 119.661 44.906L123.441 37.76C123.753 37.16 124.251 36.86 124.935 36.86H125.817C126.093 36.86 126.333 36.962 126.537 37.166C126.741 37.37 126.843 37.61 126.843 37.886V48.974C126.843 49.25 126.741 49.49 126.537 49.694C126.333 49.898 126.093 50 125.817 50H124.935C124.659 50 124.419 49.898 124.215 49.694C124.011 49.49 123.909 49.25 123.909 48.974V41.954C123.909 41.942 123.903 41.936 123.891 41.936C123.879 41.936 123.873 41.942 123.873 41.954L120.093 49.1C119.781 49.7 119.283 50 118.599 50H117.717ZM132.942 44.42V47.588C132.942 47.696 132.996 47.762 133.104 47.786C133.356 47.834 133.662 47.858 134.022 47.858C134.874 47.858 135.498 47.702 135.894 47.39C136.29 47.066 136.488 46.574 136.488 45.914C136.488 44.81 135.588 44.258 133.788 44.258H133.104C132.996 44.258 132.942 44.312 132.942 44.42ZM132.942 39.272V41.918C132.942 42.014 132.996 42.062 133.104 42.062H133.536C135.288 42.062 136.164 41.54 136.164 40.496C136.164 39.5 135.432 39.002 133.968 39.002C133.62 39.002 133.326 39.026 133.086 39.074C132.99 39.098 132.942 39.164 132.942 39.272ZM130.944 50.036C130.656 50.012 130.416 49.886 130.224 49.658C130.032 49.43 129.936 49.172 129.936 48.884V37.976C129.936 37.676 130.032 37.418 130.224 37.202C130.428 36.974 130.674 36.848 130.962 36.824C131.898 36.728 132.816 36.68 133.716 36.68C137.196 36.68 138.936 37.802 138.936 40.046C138.936 40.802 138.69 41.444 138.198 41.972C137.718 42.5 137.07 42.836 136.254 42.98C136.242 42.98 136.236 42.992 136.236 43.016C136.236 43.028 136.248 43.034 136.272 43.034C137.22 43.166 137.97 43.526 138.522 44.114C139.086 44.702 139.368 45.404 139.368 46.22C139.368 47.552 138.924 48.548 138.036 49.208C137.16 49.856 135.78 50.18 133.896 50.18C132.948 50.18 131.964 50.132 130.944 50.036ZM145.017 44.69C145.005 44.726 145.011 44.762 145.035 44.798C145.071 44.822 145.107 44.834 145.143 44.834H147.555C147.591 44.834 147.621 44.822 147.645 44.798C147.681 44.762 147.693 44.726 147.681 44.69L146.367 39.524C146.367 39.512 146.361 39.506 146.349 39.506C146.337 39.506 146.331 39.512 146.331 39.524L145.017 44.69ZM141.525 50C141.273 50 141.069 49.898 140.913 49.694C140.769 49.49 140.739 49.268 140.823 49.028L144.459 37.832C144.555 37.544 144.723 37.31 144.963 37.13C145.215 36.95 145.491 36.86 145.791 36.86H146.979C147.291 36.86 147.573 36.95 147.825 37.13C148.077 37.31 148.245 37.544 148.329 37.832L151.947 49.028C152.031 49.268 151.995 49.49 151.839 49.694C151.695 49.898 151.497 50 151.245 50H150.039C149.739 50 149.469 49.91 149.229 49.73C148.989 49.538 148.833 49.298 148.761 49.01L148.329 47.3C148.317 47.204 148.257 47.156 148.149 47.156H144.549C144.453 47.156 144.393 47.204 144.369 47.3L143.937 49.01C143.865 49.298 143.709 49.538 143.469 49.73C143.229 49.91 142.959 50 142.659 50H141.525ZM154.99 50C154.714 50 154.474 49.898 154.27 49.694C154.066 49.49 153.964 49.25 153.964 48.974V37.886C153.964 37.61 154.066 37.37 154.27 37.166C154.474 36.962 154.714 36.86 154.99 36.86H156.016C156.292 36.86 156.526 36.962 156.718 37.166C156.922 37.37 157.024 37.61 157.024 37.886V41.846C157.024 41.954 157.078 42.008 157.186 42.008H160.894C161.002 42.008 161.056 41.954 161.056 41.846V37.886C161.056 37.61 161.152 37.37 161.344 37.166C161.548 36.962 161.788 36.86 162.064 36.86H163.09C163.366 36.86 163.606 36.962 163.81 37.166C164.014 37.37 164.116 37.61 164.116 37.886V48.974C164.116 49.25 164.014 49.49 163.81 49.694C163.606 49.898 163.366 50 163.09 50H162.064C161.788 50 161.548 49.898 161.344 49.694C161.152 49.49 161.056 49.25 161.056 48.974V44.474C161.056 44.378 161.002 44.33 160.894 44.33H157.186C157.078 44.33 157.024 44.378 157.024 44.474V48.974C157.024 49.25 156.922 49.49 156.718 49.694C156.526 49.898 156.292 50 156.016 50H154.99ZM168.235 50C167.959 50 167.719 49.898 167.515 49.694C167.311 49.49 167.209 49.25 167.209 48.974V37.886C167.209 37.61 167.311 37.37 167.515 37.166C167.719 36.962 167.959 36.86 168.235 36.86H169.117C169.393 36.86 169.633 36.962 169.837 37.166C170.041 37.37 170.143 37.61 170.143 37.886V44.906C170.143 44.918 170.149 44.924 170.161 44.924C170.173 44.924 170.179 44.918 170.179 44.906L173.959 37.76C174.271 37.16 174.769 36.86 175.453 36.86H176.335C176.611 36.86 176.851 36.962 177.055 37.166C177.259 37.37 177.361 37.61 177.361 37.886V48.974C177.361 49.25 177.259 49.49 177.055 49.694C176.851 49.898 176.611 50 176.335 50H175.453C175.177 50 174.937 49.898 174.733 49.694C174.529 49.49 174.427 49.25 174.427 48.974V41.954C174.427 41.942 174.421 41.936 174.409 41.936C174.397 41.936 174.391 41.942 174.391 41.954L170.611 49.1C170.299 49.7 169.801 50 169.117 50H168.235ZM181.462 50C181.186 50 180.946 49.898 180.742 49.694C180.55 49.49 180.454 49.25 180.454 48.974V37.886C180.454 37.61 180.55 37.37 180.742 37.166C180.946 36.962 181.186 36.86 181.462 36.86H187.834C188.11 36.86 188.344 36.962 188.536 37.166C188.74 37.37 188.842 37.61 188.842 37.886V38.3C188.842 38.576 188.74 38.816 188.536 39.02C188.344 39.224 188.11 39.326 187.834 39.326H183.658C183.562 39.326 183.514 39.374 183.514 39.47V41.846C183.514 41.954 183.562 42.008 183.658 42.008H187.474C187.75 42.008 187.984 42.11 188.176 42.314C188.38 42.518 188.482 42.758 188.482 43.034V43.304C188.482 43.58 188.38 43.82 188.176 44.024C187.984 44.228 187.75 44.33 187.474 44.33H183.658C183.562 44.33 183.514 44.378 183.514 44.474V47.39C183.514 47.486 183.562 47.534 183.658 47.534H187.834C188.11 47.534 188.344 47.636 188.536 47.84C188.74 48.044 188.842 48.284 188.842 48.56V48.974C188.842 49.25 188.74 49.49 188.536 49.694C188.344 49.898 188.11 50 187.834 50H181.462Z" fill="#FFDCCB"></path> </svg> 