<?xml version="1.0" encoding="UTF-8"?> <svg xmlns:x="http://ns.adobe.com/Extensibility/1.0/" xmlns:i="http://ns.adobe.com/AdobeIllustrator/10.0/" xmlns:graph="http://ns.adobe.com/Graphs/1.0/" xmlns="http://www.w3.org/2000/svg" xmlns:xlink="http://www.w3.org/1999/xlink" height="100px" width="100px" fill="#a30000" x="0px" y="0px" viewBox="0 0 100 100" style="enable-background:new 0 0 100 100;" xml:space="preserve"> <g> <g i:extraneous="self"> <g> <path d="M5273.1,2400.1v-2c0-2.8-5-4-9.7-4s-9.7,1.3-9.7,4v2c0,1.8,0.7,3.6,2,4.9l5,4.9c0.3,0.3,0.4,0.6,0.4,1v6.4 c0,0.4,0.2,0.7,0.6,0.8l2.9,0.9c0.5,0.1,1-0.2,1-0.8v-7.2c0-0.4,0.2-0.7,0.4-1l5.1-5C5272.4,2403.7,5273.1,2401.9,5273.1,2400.1z M5263.4,2400c-4.8,0-7.4-1.3-7.5-1.8v0c0.1-0.5,2.7-1.8,7.5-1.8c4.8,0,7.3,1.3,7.5,1.8C5270.7,2398.7,5268.2,2400,5263.4,2400z"></path> <path d="M5268.4,2410.3c-0.6,0-1,0.4-1,1c0,0.6,0.4,1,1,1h4.3c0.6,0,1-0.4,1-1c0-0.6-0.4-1-1-1H5268.4z"></path> <path d="M5272.7,2413.7h-4.3c-0.6,0-1,0.4-1,1c0,0.6,0.4,1,1,1h4.3c0.6,0,1-0.4,1-1C5273.7,2414.1,5273.3,2413.7,5272.7,2413.7z"></path> <path d="M5272.7,2417h-4.3c-0.6,0-1,0.4-1,1c0,0.6,0.4,1,1,1h4.3c0.6,0,1-0.4,1-1C5273.7,2417.5,5273.3,2417,5272.7,2417z"></path> </g> <g> <path d="M45.7,55.3v-3.6c0-4.9,4-8.8,8.8-8.8c2.4,0,4.6,0.9,6.3,2.6c0.8,0.8,1.5,1.8,1.9,2.9c5.2-4.8,8.5-11.8,8.5-19.5 c0-14.6-11.8-26.4-26.4-26.4c-14.6,0-26.4,11.8-26.4,26.4s11.8,26.4,26.4,26.4C45.1,55.3,45.4,55.3,45.7,55.3z M42.1,38.4 c-0.8,0-1.7-0.3-2.3-0.9l-7-7c-1.3-1.3-1.3-3.3,0-4.6c1.3-1.3,3.3-1.3,4.6,0l4.6,4.6l10.1-10.1c1.3-1.3,3.3-1.3,4.6,0 c1.3,1.3,1.3,3.3,0,4.6L44.3,37.5C43.7,38.1,42.9,38.4,42.1,38.4z"></path> <path d="M81.6,72.4c0-2.3-1.9-4.1-4.1-4.1c-1.5,0-2.8,0.8-3.5,1.9v-0.1c0-2.3-1.9-4.1-4.1-4.1c-1.5,0-2.8,0.8-3.5,1.9v-0.1 c0-2.3-1.9-4.1-4.1-4.1c-1.5,0-2.8,0.8-3.5,1.9V51.7c0-1.1-0.4-2.2-1.2-2.9c-0.8-0.8-1.8-1.2-2.9-1.2c0,0,0,0,0,0 c-2.3,0-4.1,1.9-4.1,4.1v25.6c0,0.2-0.1,0.4-0.4,0.5c-0.2,0.1-0.5,0-0.6-0.1l-4.2-4.2c-1.4-1.4-3.7-1.6-5.3-0.5 c-1,0.7-1.6,1.7-1.8,2.9c-0.2,1.2,0.2,2.4,0.9,3.3l10.5,12.6c3,3.6,7.3,5.6,12,5.6H68c3.6,0,7.1-1.4,9.7-4c2.6-2.6,4-6,4-9.7 L81.6,72.4z"></path> </g> </g> </g> </svg> 