<?xml version="1.0" encoding="UTF-8"?> <svg xmlns="http://www.w3.org/2000/svg" height="100px" width="100px" fill="#a30000" viewBox="0 0 82.77 82.78" x="0px" y="0px"> <defs> <style>.cls-1{fill:#a30000;}</style> </defs> <title>Fichier 1145</title> <g data-name="Calque 2"> <g data-name="Calque 2"> <path class="cls-1" d="M63.6,6.44A41.41,41.41,0,0,0,6.44,63.6a40.65,40.65,0,0,0,5.67,7.06A41.4,41.4,0,1,0,70.66,12.11,40.65,40.65,0,0,0,63.6,6.44ZM58,36.52l-14,14-1.29,1.29L37.59,57l0,0a1.79,1.79,0,0,1-2.5-.08l-5.06-5-5.24-5.24A5.4,5.4,0,0,1,32.4,39l4,4,14-14A5.4,5.4,0,1,1,58,36.52Z"></path> </g> </g> </svg> 