<?xml version="1.0" encoding="UTF-8"?> <svg xmlns="http://www.w3.org/2000/svg" width="274" height="274" viewBox="0 0 274 274" fill="none"> <path fill-rule="evenodd" clip-rule="evenodd" d="M20.8157 60C9.31952 60 0 69.3195 0 80.8157V219.908C0 231.404 9.31951 240.723 20.8157 240.723H253.184C264.68 240.723 274 231.404 274 219.908V80.8157C274 69.3195 264.68 60 253.184 60H20.8157ZM156.821 148.613C159.719 148.613 162.068 146.264 162.068 143.366C162.068 140.468 159.719 138.119 156.821 138.119C153.924 138.119 151.574 140.468 151.574 143.366C151.574 146.264 153.924 148.613 156.821 148.613ZM69.7067 161.2V173.598C69.7067 173.903 69.8781 174.093 70.2209 174.169C71.5159 174.322 72.5443 174.398 73.306 174.398C76.0484 174.398 78.1622 173.769 79.6477 172.513C81.1712 171.218 81.933 169.427 81.933 167.142C81.933 162.61 79.0573 160.343 73.306 160.343C72.3538 160.343 71.3064 160.439 70.1638 160.629C69.8591 160.705 69.7067 160.896 69.7067 161.2ZM63.4222 195.251C62.5462 195.251 61.7844 194.927 61.1369 194.28C60.4894 193.632 60.1657 192.871 60.1657 191.995V157.087C60.1657 156.173 60.4704 155.354 61.0798 154.63C61.6892 153.907 62.451 153.507 63.3651 153.431C66.6025 153.126 69.7258 152.973 72.7347 152.973C84.9229 152.973 91.0169 157.506 91.0169 166.571C91.0169 171.484 89.5886 175.217 86.732 177.769C83.9135 180.283 79.7619 181.539 74.2773 181.539C72.8299 181.539 71.4778 181.482 70.2209 181.368C69.8781 181.368 69.7067 181.52 69.7067 181.825V191.995C69.7067 192.871 69.383 193.632 68.7355 194.28C68.088 194.927 67.3262 195.251 66.4502 195.251H63.4222ZM23.0237 161.6C22.1477 161.6 21.3859 161.277 20.7384 160.629C20.0909 159.982 19.7672 159.22 19.7672 158.344V156.801C19.7672 155.925 20.0909 155.164 20.7384 154.516C21.3859 153.869 22.1477 153.545 23.0237 153.545H48.5045C49.3806 153.545 50.1423 153.869 50.7898 154.516C51.4373 155.164 51.761 155.925 51.761 156.801V158.344C51.761 159.22 51.4373 159.982 50.7898 160.629C50.1423 161.277 49.3806 161.6 48.5045 161.6H41.1916C40.8869 161.6 40.7346 161.753 40.7346 162.057V191.995C40.7346 192.871 40.4108 193.632 39.7633 194.28C39.1158 194.927 38.3541 195.251 37.4781 195.251H34.0502C33.1741 195.251 32.4124 194.927 31.7649 194.28C31.1174 193.632 30.7936 192.871 30.7936 191.995V162.057C30.7936 161.753 30.6413 161.6 30.3366 161.6H23.0237ZM114.932 160.972C121.331 160.972 124.531 165.447 124.531 174.398C124.531 183.349 121.331 187.824 114.932 187.824C108.534 187.824 105.334 183.349 105.334 174.398C105.334 165.447 108.534 160.972 114.932 160.972ZM114.932 195.822C120.95 195.822 125.711 193.937 129.215 190.166C132.72 186.358 134.472 181.101 134.472 174.398C134.472 167.694 132.72 162.457 129.215 158.687C125.711 154.878 120.95 152.973 114.932 152.973C108.915 152.973 104.154 154.878 100.649 158.687C97.1454 162.457 95.3933 167.694 95.3933 174.398C95.3933 181.101 97.1454 186.358 100.649 190.166C104.154 193.937 108.915 195.822 114.932 195.822ZM144.989 195.251C144.113 195.251 143.351 194.927 142.704 194.28C142.056 193.632 141.733 192.871 141.733 191.995V156.801C141.733 155.925 142.056 155.164 142.704 154.516C143.351 153.869 144.113 153.545 144.989 153.545H147.789C148.665 153.545 149.426 153.869 150.074 154.516C150.721 155.164 151.045 155.925 151.045 156.801V179.083C151.045 179.121 151.064 179.14 151.102 179.14C151.14 179.14 151.159 179.121 151.159 179.083L163.157 156.401C164.147 154.497 165.728 153.545 167.899 153.545H170.699C171.575 153.545 172.336 153.869 172.984 154.516C173.631 155.164 173.955 155.925 173.955 156.801V191.995C173.955 192.871 173.631 193.632 172.984 194.28C172.336 194.927 171.575 195.251 170.699 195.251H167.899C167.023 195.251 166.261 194.927 165.614 194.28C164.966 193.632 164.643 192.871 164.643 191.995V169.713C164.643 169.675 164.624 169.656 164.585 169.656C164.547 169.656 164.528 169.675 164.528 169.713L152.531 192.394C151.54 194.299 149.96 195.251 147.789 195.251H144.989ZM184.743 194.28C185.39 194.927 186.152 195.251 187.028 195.251H190.285C191.161 195.251 191.903 194.927 192.513 194.28C193.16 193.632 193.484 192.871 193.484 191.995V175.712C193.484 175.674 193.503 175.655 193.541 175.655C193.617 175.655 193.655 175.674 193.655 175.712L203.996 192.509C205.101 194.337 206.739 195.251 208.91 195.251H213.709C214.394 195.251 214.889 194.946 215.194 194.337C215.537 193.728 215.518 193.137 215.137 192.566L202.911 173.941C202.72 173.674 202.72 173.408 202.911 173.141L214.508 156.23C214.889 155.659 214.927 155.068 214.623 154.459C214.318 153.849 213.823 153.545 213.137 153.545H208.338C206.167 153.545 204.51 154.459 203.368 156.287L193.655 171.37C193.655 171.408 193.617 171.427 193.541 171.427C193.503 171.427 193.484 171.408 193.484 171.37V156.801C193.484 155.925 193.16 155.164 192.513 154.516C191.903 153.869 191.161 153.545 190.285 153.545H187.028C186.152 153.545 185.39 153.869 184.743 154.516C184.095 155.164 183.771 155.925 183.771 156.801V191.995C183.771 192.871 184.095 193.632 184.743 194.28ZM233.091 178.397C233.053 178.511 233.072 178.626 233.148 178.74C233.262 178.816 233.376 178.854 233.491 178.854H241.146C241.26 178.854 241.356 178.816 241.432 178.74C241.546 178.626 241.584 178.511 241.546 178.397L237.376 162C237.376 161.962 237.356 161.943 237.318 161.943C237.28 161.943 237.261 161.962 237.261 162L233.091 178.397ZM222.007 195.251C221.207 195.251 220.56 194.927 220.065 194.28C219.607 193.632 219.512 192.928 219.779 192.166L231.32 156.63C231.624 155.716 232.157 154.973 232.919 154.402C233.719 153.83 234.595 153.545 235.547 153.545H239.318C240.308 153.545 241.203 153.83 242.003 154.402C242.803 154.973 243.336 155.716 243.603 156.63L255.086 192.166C255.353 192.928 255.239 193.632 254.744 194.28C254.287 194.927 253.658 195.251 252.858 195.251H249.03C248.078 195.251 247.221 194.965 246.459 194.394C245.698 193.785 245.203 193.023 244.974 192.109L243.603 186.681C243.565 186.377 243.374 186.224 243.032 186.224H231.605C231.3 186.224 231.11 186.377 231.034 186.681L229.663 192.109C229.434 193.023 228.939 193.785 228.177 194.394C227.416 194.965 226.559 195.251 225.606 195.251H222.007Z" fill="#A30000"></path> </svg> 