<?xml version="1.0" encoding="UTF-8"?> <svg xmlns="http://www.w3.org/2000/svg" height="100px" width="100px" fill="#a30000" data-name="Layer 1" viewBox="0 0 100 100" x="0px" y="0px"> <title>89</title> <path d="M71.55249,48.10742A23.44629,23.44629,0,1,0,95,71.55371,23.47334,23.47334,0,0,0,71.55249,48.10742ZM82.87427,74.04956h-11.321a2.49981,2.49981,0,0,1-2.5-2.5V56.57983a2.50013,2.50013,0,0,1,5.00025,0V69.04956h8.8208a2.5,2.5,0,0,1,0,5Z"></path> <path d="M31.44537,36.66858h8.39874a.85437.85437,0,0,1,.85437.85437v5.60986a.85443.85443,0,0,1-.85443.85443H31.44531a.85437.85437,0,0,1-.85437-.85437V37.523A.85443.85443,0,0,1,31.44537,36.66858Z"></path> <path d="M47.15576,36.66858H55.5545a.85443.85443,0,0,1,.85443.85443v5.60986a.85437.85437,0,0,1-.85437.85437H47.15582a.85443.85443,0,0,1-.85443-.85443V37.52295A.85437.85437,0,0,1,47.15576,36.66858Z"></path> <path d="M62.86621,36.66858H71.265a.85443.85443,0,0,1,.85443.85443v5.60974a.85449.85449,0,0,1-.85449.85449H62.86615a.85443.85443,0,0,1-.85443-.85443V37.52307A.85449.85449,0,0,1,62.86621,36.66858Z"></path> <path d="M15.73511,50.35284h8.39868a.85437.85437,0,0,1,.85437.85437v5.60992a.85443.85443,0,0,1-.85443.85443H15.735a.85437.85437,0,0,1-.85437-.85437V51.20734A.85449.85449,0,0,1,15.73511,50.35284Z"></path> <path d="M31.44543,50.35284h8.39868a.85437.85437,0,0,1,.85437.85437v5.60992a.85443.85443,0,0,1-.85443.85443H31.44531a.85437.85437,0,0,1-.85437-.85437V51.20734A.85449.85449,0,0,1,31.44543,50.35284Z"></path> <path d="M15.735,64.03717h8.39874a.85437.85437,0,0,1,.85437.85437V70.5014a.85443.85443,0,0,1-.85443.85443H15.735a.85437.85437,0,0,1-.85437-.85437V64.8916A.85443.85443,0,0,1,15.735,64.03717Z"></path> <path d="M31.44537,64.03717h8.39874a.85437.85437,0,0,1,.85437.85437V70.5014a.85443.85443,0,0,1-.85443.85443H31.44531a.85437.85437,0,0,1-.85437-.85437V64.8916A.85443.85443,0,0,1,31.44537,64.03717Z"></path> <path d="M54.14136,50.35291h-6.9856a.85428.85428,0,0,0-.85437.85437v5.60986a.85439.85439,0,0,0,.85437.85449h.7334A27.64547,27.64547,0,0,1,54.14136,50.35291Z"></path> <path d="M13.1936,77.72144a3.9205,3.9205,0,0,1-3.91577-3.91651V30.303H77.72217V44.81531A27.21285,27.21285,0,0,1,82,46.17847V20.68774a8.19425,8.19425,0,0,0-8.1936-8.19482H67.02783V7.99445a2.99451,2.99451,0,0,0-5.989,0v4.49847H25.96118V7.99445a2.99451,2.99451,0,0,0-5.989,0v4.49847H13.1936A8.19425,8.19425,0,0,0,5,20.68774V73.80493A8.1943,8.1943,0,0,0,13.1936,82H46.17578a27.21758,27.21758,0,0,1-1.36328-4.27856ZM61.03882,16.77521v1.11645a2.99451,2.99451,0,0,0,5.989,0V16.77521a5.13333,5.13333,0,1,1-5.989,0Zm-41.06665,0v1.11645a2.99451,2.99451,0,0,0,5.989,0V16.77521a5.13345,5.13345,0,1,1-5.989,0Z"></path> </svg> 