<?xml version="1.0" encoding="UTF-8"?> <svg xmlns="http://www.w3.org/2000/svg" xmlns:xlink="http://www.w3.org/1999/xlink" height="100px" width="100px" fill="#a30000" x="0px" y="0px" viewBox="0 0 50 50" xml:space="preserve"> <g> <path d="M39.5,25.1c-0.8-3.3-1.4-6.9-1.7-8.7c-0.1-0.6-0.6-1-1.2-0.9c0,0,0,0,0,0c-0.3,0.1-0.6,0.1-0.9,0.2v15.2c0,2.2-1.8,4-4,4 H15.9c-0.3,0-0.6,0-0.8-0.1c-0.1,2.3,0.8,3.6,1.4,4.2c0.4,0.4,0.6,0.9,0.6,1.4v0.8h16v-0.5c0-0.8,0.4-1.4,1.1-1.8 C39.1,36.3,40.2,27.9,39.5,25.1z"></path> <path d="M11.9,16.5v-3.7c-0.6,0.2-1.1,0.7-1.3,1.3C10.4,15.1,11,16.2,11.9,16.5z"></path> <path d="M37.7,15.4C37.7,15.4,37.7,15.4,37.7,15.4C37.7,15.4,37.7,15.4,37.7,15.4z"></path> <path d="M15.6,20.1V5.5h16.5v23.8H15.8c0,0-0.1,0.1-0.1,0.1c-0.1,0.1-0.2,0.1-0.2,0.2l0.9,0.9c0.6,0.6,0.8,1.3,0.8,2.1 c0,0.5-0.1,0.9-0.3,1.3h14.9c1.7,0,3-1.3,3-3V4c0-1.7-1.3-3-3-3H15.9c-1.7,0-3,1.3-3,3v14c0.5,0.1,1,0.4,1.4,0.8L15.6,20.1z M19.2,3.2c0-0.4,0.3-0.8,0.8-0.8h7.9c0.4,0,0.7,0.3,0.7,0.8v0.1c0,0.4-0.3,0.7-0.7,0.7h-7.9C19.5,4.1,19.2,3.7,19.2,3.2L19.2,3.2z "></path> <path d="M12.2,23.6c0.7,0.8,2,0.8,2.7,0c0.8-0.7,0.8-2,0-2.7l-1.4-1.4c-0.7-0.8-2-0.8-2.7,0c-0.8,0.7-0.8,2,0,2.7L12.2,23.6z"></path> <path d="M15,28.7c0.8-0.7,0.8-2,0-2.7l-1.4-1.4c-0.7-0.8-2-0.8-2.7,0c-0.8,0.7-0.8,2,0,2.7l1.4,1.4C13,29.5,14.2,29.5,15,28.7z"></path> <path d="M15.6,31.2l-1.4-1.4c-0.7-0.8-2-0.8-2.7,0c-0.8,0.7-0.8,2,0,2.7l1.4,1.4c0.7,0.8,2,0.8,2.7,0C16.3,33.2,16.3,32,15.6,31.2z "></path> <path d="M33.5,42.2H16.7c-1.1,0-2,0.9-2,2V47c0,1.1,0.9,2,2,2h16.8c1.1,0,2-0.9,2-2v-2.8C35.5,43.1,34.6,42.2,33.5,42.2z"></path> <path d="M20,13h1.1c1.1,0,2-0.9,2-2V10c0-1.1-0.9-2-2-2H20c-1.1,0-2,0.9-2,2V11C18,12.2,18.9,13,20,13z"></path> <path d="M26.6,13h1.1c1.1,0,2-0.9,2-2V10c0-1.1-0.9-2-2-2h-1.1c-1.1,0-2,0.9-2,2V11C24.6,12.2,25.5,13,26.6,13z"></path> <path d="M18,18c0,1.1,0.9,2,2,2h1.1c1.1,0,2-0.9,2-2v-1.1c0-1.1-0.9-2-2-2H20c-1.1,0-2,0.9-2,2V18z"></path> <path d="M24.6,18c0,1.1,0.9,2,2,2h1.1c1.1,0,2-0.9,2-2v-1.1c0-1.1-0.9-2-2-2h-1.1c-1.1,0-2,0.9-2,2V18z"></path> <path d="M18,25c0,1.1,0.9,2,2,2h1.1c1.1,0,2-0.9,2-2v-1.1c0-1.1-0.9-2-2-2H20c-1.1,0-2,0.9-2,2V25z"></path> <path d="M24.6,25c0,1.1,0.9,2,2,2h1.1c1.1,0,2-0.9,2-2v-1.1c0-1.1-0.9-2-2-2h-1.1c-1.1,0-2,0.9-2,2V25z"></path> </g> </svg> 